<svg xmlns="http://www.w3.org/2000/svg" xml:space="preserve" viewBox="30.96 35.2 141.45 151.95">
  <path fill="currentColor" d="M172.32 96.79c0 13.78-8.48 25.5-20.29 29.78l7.14 11.83-10.57 13 10.57 12.71-17.04 22.87-12.01-12.82V125.7c-10.68-4.85-18.15-15.97-18.15-28.91 0-17.4 13.51-31.51 30.18-31.51 16.66 0 30.17 14.11 30.17 31.51zm-30.18 4.82c4.02 0 7.28-3.4 7.28-7.6 0-4.2-3.26-7.61-7.28-7.61s-7.28 3.4-7.28 7.61c-.01 4.2 3.26 7.6 7.28 7.6z"/>
  <path fill="currentColor" d="M172.41 96.88c0 13.62-8.25 25.23-19.83 29.67l6.58 11.84-9.73 13 9.73 12.71-17.03 23.05v-85.54c4.02 0 7.28-3.41 7.28-7.6 0-4.2-3.26-7.61-7.28-7.61V65.28c16.73 0 30.28 14.15 30.28 31.6zm-52.17 34.55c-9.75-8-16.3-20.3-17.2-34.27H50.8c-10.96 0-19.84 9.01-19.84 20.13v25.17c0 5.56 4.44 10.07 9.92 10.07h69.44c5.48 0 9.92-4.51 9.92-10.07v-11.03zm-47.08-40.3c-2.42-.46-4.82-.89-7.11-1.86-8.65-3.63-13.69-10.32-15.32-19.77-1.12-6.47-.59-12.87 2.03-18.92 3.72-8.6 10.39-13.26 19.15-14.84 5.24-.94 10.46-.73 15.5 1.15 7.59 2.82 12.68 8.26 15.03 16.24 2.38 8.05 2.03 16.1-1.56 23.72-3.72 7.96-10.21 12.23-18.42 13.9-.68.14-1.37.27-2.05.41-2.41-.03-4.83-.03-7.25-.03z"/>
</svg>