<?xml version="1.0" encoding="UTF-8"?>
<svg xmlns="http://www.w3.org/2000/svg" xmlns:xlink="http://www.w3.org/1999/xlink" width="0" height="0">
<symbol id="avatar" viewBox="0 0 15 15" fill="none">
  <path
    fill-rule="evenodd"
    clip-rule="evenodd"
    d="M0.877014 7.49988C0.877014 3.84219 3.84216 0.877045 7.49985 0.877045C11.1575 0.877045 14.1227 3.84219 14.1227 7.49988C14.1227 11.1575 11.1575 14.1227 7.49985 14.1227C3.84216 14.1227 0.877014 11.1575 0.877014 7.49988ZM7.49985 1.82704C4.36683 1.82704 1.82701 4.36686 1.82701 7.49988C1.82701 8.97196 2.38774 10.3131 3.30727 11.3213C4.19074 9.94119 5.73818 9.02499 7.50023 9.02499C9.26206 9.02499 10.8093 9.94097 11.6929 11.3208C12.6121 10.3127 13.1727 8.97172 13.1727 7.49988C13.1727 4.36686 10.6328 1.82704 7.49985 1.82704ZM10.9818 11.9787C10.2839 10.7795 8.9857 9.97499 7.50023 9.97499C6.01458 9.97499 4.71624 10.7797 4.01845 11.9791C4.97952 12.7272 6.18765 13.1727 7.49985 13.1727C8.81227 13.1727 10.0206 12.727 10.9818 11.9787ZM5.14999 6.50487C5.14999 5.207 6.20212 4.15487 7.49999 4.15487C8.79786 4.15487 9.84999 5.207 9.84999 6.50487C9.84999 7.80274 8.79786 8.85487 7.49999 8.85487C6.20212 8.85487 5.14999 7.80274 5.14999 6.50487ZM7.49999 5.10487C6.72679 5.10487 6.09999 5.73167 6.09999 6.50487C6.09999 7.27807 6.72679 7.90487 7.49999 7.90487C8.27319 7.90487 8.89999 7.27807 8.89999 6.50487C8.89999 5.73167 8.27319 5.10487 7.49999 5.10487Z"
    fill="currentColor"
  />
</symbol>

<symbol id="camera" viewBox="0 0 15 15" fill="none">
  <path
    fill-rule="evenodd"
    clip-rule="evenodd"
    d="M2 3C1.44772 3 1 3.44772 1 4V11C1 11.5523 1.44772 12 2 12H13C13.5523 12 14 11.5523 14 11V4C14 3.44772 13.5523 3 13 3H2ZM0 4C0 2.89543 0.895431 2 2 2H13C14.1046 2 15 2.89543 15 4V11C15 12.1046 14.1046 13 13 13H2C0.895431 13 0 12.1046 0 11V4ZM2 4.25C2 4.11193 2.11193 4 2.25 4H4.75C4.88807 4 5 4.11193 5 4.25V5.75454C5 5.89261 4.88807 6.00454 4.75 6.00454H2.25C2.11193 6.00454 2 5.89261 2 5.75454V4.25ZM12.101 7.58421C12.101 9.02073 10.9365 10.1853 9.49998 10.1853C8.06346 10.1853 6.89893 9.02073 6.89893 7.58421C6.89893 6.14769 8.06346 4.98315 9.49998 4.98315C10.9365 4.98315 12.101 6.14769 12.101 7.58421ZM13.101 7.58421C13.101 9.57302 11.4888 11.1853 9.49998 11.1853C7.51117 11.1853 5.89893 9.57302 5.89893 7.58421C5.89893 5.5954 7.51117 3.98315 9.49998 3.98315C11.4888 3.98315 13.101 5.5954 13.101 7.58421Z"
    fill="currentColor"
  />
</symbol>

<symbol id="check" viewBox="0 0 15 15" fill="none">
  <path
    fill-rule="evenodd"
    clip-rule="evenodd"
    d="M11.4669 3.72684C11.7558 3.91574 11.8369 4.30308 11.648 4.59198L7.39799 11.092C7.29783 11.2452 7.13556 11.3467 6.95402 11.3699C6.77247 11.3931 6.58989 11.3355 6.45446 11.2124L3.70446 8.71241C3.44905 8.48022 3.43023 8.08494 3.66242 7.82953C3.89461 7.57412 4.28989 7.55529 4.5453 7.78749L6.75292 9.79441L10.6018 3.90792C10.7907 3.61902 11.178 3.53795 11.4669 3.72684Z"
    fill="currentColor"
  />
</symbol>

<symbol id="cross-1" viewBox="0 0 15 15" fill="none">
  <path
    fill-rule="evenodd"
    clip-rule="evenodd"
    d="M12.8536 2.85355C13.0488 2.65829 13.0488 2.34171 12.8536 2.14645C12.6583 1.95118 12.3417 1.95118 12.1464 2.14645L7.5 6.79289L2.85355 2.14645C2.65829 1.95118 2.34171 1.95118 2.14645 2.14645C1.95118 2.34171 1.95118 2.65829 2.14645 2.85355L6.79289 7.5L2.14645 12.1464C1.95118 12.3417 1.95118 12.6583 2.14645 12.8536C2.34171 13.0488 2.65829 13.0488 2.85355 12.8536L7.5 8.20711L12.1464 12.8536C12.3417 13.0488 12.6583 13.0488 12.8536 12.8536C13.0488 12.6583 13.0488 12.3417 12.8536 12.1464L8.20711 7.5L12.8536 2.85355Z"
    fill="currentColor"
  />
</symbol>

<symbol id="exit" viewBox="0 0 15 15" fill="none">
  <path
    fill-rule="evenodd"
    clip-rule="evenodd"
    d="M3 1C2.44771 1 2 1.44772 2 2V13C2 13.5523 2.44772 14 3 14H10.5C10.7761 14 11 13.7761 11 13.5C11 13.2239 10.7761 13 10.5 13H3V2L10.5 2C10.7761 2 11 1.77614 11 1.5C11 1.22386 10.7761 1 10.5 1H3ZM12.6036 4.89645C12.4083 4.70118 12.0917 4.70118 11.8964 4.89645C11.7012 5.09171 11.7012 5.40829 11.8964 5.60355L13.2929 7H6.5C6.22386 7 6 7.22386 6 7.5C6 7.77614 6.22386 8 6.5 8H13.2929L11.8964 9.39645C11.7012 9.59171 11.7012 9.90829 11.8964 10.1036C12.0917 10.2988 12.4083 10.2988 12.6036 10.1036L14.8536 7.85355C15.0488 7.65829 15.0488 7.34171 14.8536 7.14645L12.6036 4.89645Z"
    fill="currentColor"
  />
</symbol>

<symbol id="laptop" viewBox="0 0 15 15" fill="none">
  <path
    fill-rule="evenodd"
    clip-rule="evenodd"
    d="M2 4.25C2 4.11193 2.11193 4 2.25 4H12.75C12.8881 4 13 4.11193 13 4.25V11.5H2V4.25ZM2.25 3C1.55964 3 1 3.55964 1 4.25V12H0V12.5C0 12.7761 0.223858 13 0.5 13H14.5C14.7761 13 15 12.7761 15 12.5V12H14V4.25C14 3.55964 13.4404 3 12.75 3H2.25Z"
    fill="currentColor"
  />
</symbol>

<symbol id="lock-closed" viewBox="0 0 15 15" fill="none">
  <path
    fill-rule="evenodd"
    clip-rule="evenodd"
    d="M5 4.63601C5 3.76031 5.24219 3.1054 5.64323 2.67357C6.03934 2.24705 6.64582 1.9783 7.5014 1.9783C8.35745 1.9783 8.96306 2.24652 9.35823 2.67208C9.75838 3.10299 10 3.75708 10 4.63325V5.99999H5V4.63601ZM4 5.99999V4.63601C4 3.58148 4.29339 2.65754 4.91049 1.99307C5.53252 1.32329 6.42675 0.978302 7.5014 0.978302C8.57583 0.978302 9.46952 1.32233 10.091 1.99162C10.7076 2.65557 11 3.57896 11 4.63325V5.99999H12C12.5523 5.99999 13 6.44771 13 6.99999V13C13 13.5523 12.5523 14 12 14H3C2.44772 14 2 13.5523 2 13V6.99999C2 6.44771 2.44772 5.99999 3 5.99999H4ZM3 6.99999H12V13H3V6.99999Z"
    fill="currentColor"
  />
</symbol>

<symbol id="lock-open-1" viewBox="0 0 15 15" fill="none">
  <path
    fill-rule="evenodd"
    clip-rule="evenodd"
    d="M7.4986 0C6.3257 0 5.36107 0.38943 4.73753 1.19361C4.23745 1.83856 4 2.68242 4 3.63325H5C5 2.84313 5.19691 2.23312 5.5278 1.80636C5.91615 1.30552 6.55152 1 7.4986 1C8.35683 1 8.96336 1.26502 9.35846 1.68623C9.75793 2.11211 10 2.76044 10 3.63601V6H3C2.44772 6 2 6.44772 2 7V13C2 13.5523 2.44772 14 3 14H12C12.5523 14 13 13.5523 13 13V7C13 6.44771 12.5523 6 12 6H11V3.63601C11 2.58135 10.7065 1.66167 10.0878 1.0021C9.46477 0.337871 8.57061 0 7.4986 0ZM3 7H12V13H3V7Z"
    fill="currentColor"
  />
</symbol>

<symbol id="moon" viewBox="0 0 15 15" fill="none">
  <path
    fill-rule="evenodd"
    clip-rule="evenodd"
    d="M2.89998 0.499976C2.89998 0.279062 2.72089 0.0999756 2.49998 0.0999756C2.27906 0.0999756 2.09998 0.279062 2.09998 0.499976V1.09998H1.49998C1.27906 1.09998 1.09998 1.27906 1.09998 1.49998C1.09998 1.72089 1.27906 1.89998 1.49998 1.89998H2.09998V2.49998C2.09998 2.72089 2.27906 2.89998 2.49998 2.89998C2.72089 2.89998 2.89998 2.72089 2.89998 2.49998V1.89998H3.49998C3.72089 1.89998 3.89998 1.72089 3.89998 1.49998C3.89998 1.27906 3.72089 1.09998 3.49998 1.09998H2.89998V0.499976ZM5.89998 3.49998C5.89998 3.27906 5.72089 3.09998 5.49998 3.09998C5.27906 3.09998 5.09998 3.27906 5.09998 3.49998V4.09998H4.49998C4.27906 4.09998 4.09998 4.27906 4.09998 4.49998C4.09998 4.72089 4.27906 4.89998 4.49998 4.89998H5.09998V5.49998C5.09998 5.72089 5.27906 5.89998 5.49998 5.89998C5.72089 5.89998 5.89998 5.72089 5.89998 5.49998V4.89998H6.49998C6.72089 4.89998 6.89998 4.72089 6.89998 4.49998C6.89998 4.27906 6.72089 4.09998 6.49998 4.09998H5.89998V3.49998ZM1.89998 6.49998C1.89998 6.27906 1.72089 6.09998 1.49998 6.09998C1.27906 6.09998 1.09998 6.27906 1.09998 6.49998V7.09998H0.499976C0.279062 7.09998 0.0999756 7.27906 0.0999756 7.49998C0.0999756 7.72089 0.279062 7.89998 0.499976 7.89998H1.09998V8.49998C1.09998 8.72089 1.27906 8.89997 1.49998 8.89997C1.72089 8.89997 1.89998 8.72089 1.89998 8.49998V7.89998H2.49998C2.72089 7.89998 2.89998 7.72089 2.89998 7.49998C2.89998 7.27906 2.72089 7.09998 2.49998 7.09998H1.89998V6.49998ZM8.54406 0.98184L8.24618 0.941586C8.03275 0.917676 7.90692 1.1655 8.02936 1.34194C8.17013 1.54479 8.29981 1.75592 8.41754 1.97445C8.91878 2.90485 9.20322 3.96932 9.20322 5.10022C9.20322 8.37201 6.82247 11.0878 3.69887 11.6097C3.45736 11.65 3.20988 11.6772 2.96008 11.6906C2.74563 11.702 2.62729 11.9535 2.77721 12.1072C2.84551 12.1773 2.91535 12.2458 2.98667 12.3128L3.05883 12.3795L3.31883 12.6045L3.50684 12.7532L3.62796 12.8433L3.81491 12.9742L3.99079 13.089C4.11175 13.1651 4.23536 13.2375 4.36157 13.3059L4.62496 13.4412L4.88553 13.5607L5.18837 13.6828L5.43169 13.7686C5.56564 13.8128 5.70149 13.8529 5.83857 13.8885C5.94262 13.9155 6.04767 13.9401 6.15405 13.9622C6.27993 13.9883 6.40713 14.0109 6.53544 14.0298L6.85241 14.0685L7.11934 14.0892C7.24637 14.0965 7.37436 14.1002 7.50322 14.1002C11.1483 14.1002 14.1032 11.1453 14.1032 7.50023C14.1032 7.25044 14.0893 7.00389 14.0623 6.76131L14.0255 6.48407C13.991 6.26083 13.9453 6.04129 13.8891 5.82642C13.8213 5.56709 13.7382 5.31398 13.6409 5.06881L13.5279 4.80132L13.4507 4.63542L13.3766 4.48666C13.2178 4.17773 13.0353 3.88295 12.8312 3.60423L12.6782 3.40352L12.4793 3.16432L12.3157 2.98361L12.1961 2.85951L12.0355 2.70246L11.8134 2.50184L11.4925 2.24191L11.2483 2.06498L10.9562 1.87446L10.6346 1.68894L10.3073 1.52378L10.1938 1.47176L9.95488 1.3706L9.67791 1.2669L9.42566 1.1846L9.10075 1.09489L8.83599 1.03486L8.54406 0.98184ZM10.4032 5.30023C10.4032 4.27588 10.2002 3.29829 9.83244 2.40604C11.7623 3.28995 13.1032 5.23862 13.1032 7.50023C13.1032 10.593 10.596 13.1002 7.50322 13.1002C6.63646 13.1002 5.81597 12.9036 5.08355 12.5522C6.5419 12.0941 7.81081 11.2082 8.74322 10.0416C8.87963 10.2284 9.10028 10.3497 9.34928 10.3497C9.76349 10.3497 10.0993 10.0139 10.0993 9.59971C10.0993 9.24256 9.84965 8.94373 9.51535 8.86816C9.57741 8.75165 9.63653 8.63334 9.6926 8.51332C9.88358 8.63163 10.1088 8.69993 10.35 8.69993C11.0403 8.69993 11.6 8.14028 11.6 7.44993C11.6 6.75976 11.0406 6.20024 10.3505 6.19993C10.3853 5.90487 10.4032 5.60464 10.4032 5.30023Z"
    fill="currentColor"
  />
</symbol>

<symbol id="pencil-1" viewBox="0 0 15 15" fill="none">
  <path
    fill-rule="evenodd"
    clip-rule="evenodd"
    d="M11.8536 1.14645C11.6583 0.951184 11.3417 0.951184 11.1465 1.14645L3.71455 8.57836C3.62459 8.66832 3.55263 8.77461 3.50251 8.89155L2.04044 12.303C1.9599 12.491 2.00189 12.709 2.14646 12.8536C2.29103 12.9981 2.50905 13.0401 2.69697 12.9596L6.10847 11.4975C6.2254 11.4474 6.3317 11.3754 6.42166 11.2855L13.8536 3.85355C14.0488 3.65829 14.0488 3.34171 13.8536 3.14645L11.8536 1.14645ZM4.42166 9.28547L11.5 2.20711L12.7929 3.5L5.71455 10.5784L4.21924 11.2192L3.78081 10.7808L4.42166 9.28547Z"
    fill="currentColor"
  />
</symbol>

<symbol id="pencil-2" viewBox="0 0 15 15" fill="none">
  <path
    fill-rule="evenodd"
    clip-rule="evenodd"
    d="M12.1464 1.14645C12.3417 0.951184 12.6583 0.951184 12.8535 1.14645L14.8535 3.14645C15.0488 3.34171 15.0488 3.65829 14.8535 3.85355L10.9109 7.79618C10.8349 7.87218 10.7471 7.93543 10.651 7.9835L6.72359 9.94721C6.53109 10.0435 6.29861 10.0057 6.14643 9.85355C5.99425 9.70137 5.95652 9.46889 6.05277 9.27639L8.01648 5.34897C8.06455 5.25283 8.1278 5.16507 8.2038 5.08907L12.1464 1.14645ZM12.5 2.20711L8.91091 5.79618L7.87266 7.87267L8.12731 8.12732L10.2038 7.08907L13.7929 3.5L12.5 2.20711ZM9.99998 2L8.99998 3H4.9C4.47171 3 4.18056 3.00039 3.95552 3.01877C3.73631 3.03668 3.62421 3.06915 3.54601 3.10899C3.35785 3.20487 3.20487 3.35785 3.10899 3.54601C3.06915 3.62421 3.03669 3.73631 3.01878 3.95552C3.00039 4.18056 3 4.47171 3 4.9V11.1C3 11.5283 3.00039 11.8194 3.01878 12.0445C3.03669 12.2637 3.06915 12.3758 3.10899 12.454C3.20487 12.6422 3.35785 12.7951 3.54601 12.891C3.62421 12.9309 3.73631 12.9633 3.95552 12.9812C4.18056 12.9996 4.47171 13 4.9 13H11.1C11.5283 13 11.8194 12.9996 12.0445 12.9812C12.2637 12.9633 12.3758 12.9309 12.454 12.891C12.6422 12.7951 12.7951 12.6422 12.891 12.454C12.9309 12.3758 12.9633 12.2637 12.9812 12.0445C12.9996 11.8194 13 11.5283 13 11.1V6.99998L14 5.99998V11.1V11.1207C14 11.5231 14 11.8553 13.9779 12.1259C13.9549 12.407 13.9057 12.6653 13.782 12.908C13.5903 13.2843 13.2843 13.5903 12.908 13.782C12.6653 13.9057 12.407 13.9549 12.1259 13.9779C11.8553 14 11.5231 14 11.1207 14H11.1H4.9H4.87934C4.47686 14 4.14468 14 3.87409 13.9779C3.59304 13.9549 3.33469 13.9057 3.09202 13.782C2.7157 13.5903 2.40973 13.2843 2.21799 12.908C2.09434 12.6653 2.04506 12.407 2.0221 12.1259C1.99999 11.8553 1.99999 11.5231 2 11.1207V11.1206V11.1V4.9V4.87935V4.87932V4.87931C1.99999 4.47685 1.99999 4.14468 2.0221 3.87409C2.04506 3.59304 2.09434 3.33469 2.21799 3.09202C2.40973 2.71569 2.7157 2.40973 3.09202 2.21799C3.33469 2.09434 3.59304 2.04506 3.87409 2.0221C4.14468 1.99999 4.47685 1.99999 4.87932 2H4.87935H4.9H9.99998Z"
    fill="currentColor"
  />
</symbol>

<symbol id="plus" viewBox="0 0 15 15" fill="none">
  <path
    fill-rule="evenodd"
    clip-rule="evenodd"
    d="M8 2.75C8 2.47386 7.77614 2.25 7.5 2.25C7.22386 2.25 7 2.47386 7 2.75V7H2.75C2.47386 7 2.25 7.22386 2.25 7.5C2.25 7.77614 2.47386 8 2.75 8H7V12.25C7 12.5261 7.22386 12.75 7.5 12.75C7.77614 12.75 8 12.5261 8 12.25V8H12.25C12.5261 8 12.75 7.77614 12.75 7.5C12.75 7.22386 12.5261 7 12.25 7H8V2.75Z"
    fill="currentColor"
  />
</symbol>

<symbol id="sun" viewBox="0 0 15 15" fill="none">
  <path
    fill-rule="evenodd"
    clip-rule="evenodd"
    d="M7.5 0C7.77614 0 8 0.223858 8 0.5V2.5C8 2.77614 7.77614 3 7.5 3C7.22386 3 7 2.77614 7 2.5V0.5C7 0.223858 7.22386 0 7.5 0ZM2.1967 2.1967C2.39196 2.00144 2.70854 2.00144 2.90381 2.1967L4.31802 3.61091C4.51328 3.80617 4.51328 4.12276 4.31802 4.31802C4.12276 4.51328 3.80617 4.51328 3.61091 4.31802L2.1967 2.90381C2.00144 2.70854 2.00144 2.39196 2.1967 2.1967ZM0.5 7C0.223858 7 0 7.22386 0 7.5C0 7.77614 0.223858 8 0.5 8H2.5C2.77614 8 3 7.77614 3 7.5C3 7.22386 2.77614 7 2.5 7H0.5ZM2.1967 12.8033C2.00144 12.608 2.00144 12.2915 2.1967 12.0962L3.61091 10.682C3.80617 10.4867 4.12276 10.4867 4.31802 10.682C4.51328 10.8772 4.51328 11.1938 4.31802 11.3891L2.90381 12.8033C2.70854 12.9986 2.39196 12.9986 2.1967 12.8033ZM12.5 7C12.2239 7 12 7.22386 12 7.5C12 7.77614 12.2239 8 12.5 8H14.5C14.7761 8 15 7.77614 15 7.5C15 7.22386 14.7761 7 14.5 7H12.5ZM10.682 4.31802C10.4867 4.12276 10.4867 3.80617 10.682 3.61091L12.0962 2.1967C12.2915 2.00144 12.608 2.00144 12.8033 2.1967C12.9986 2.39196 12.9986 2.70854 12.8033 2.90381L11.3891 4.31802C11.1938 4.51328 10.8772 4.51328 10.682 4.31802ZM8 12.5C8 12.2239 7.77614 12 7.5 12C7.22386 12 7 12.2239 7 12.5V14.5C7 14.7761 7.22386 15 7.5 15C7.77614 15 8 14.7761 8 14.5V12.5ZM10.682 10.682C10.8772 10.4867 11.1938 10.4867 11.3891 10.682L12.8033 12.0962C12.9986 12.2915 12.9986 12.608 12.8033 12.8033C12.608 12.9986 12.2915 12.9986 12.0962 12.8033L10.682 11.3891C10.4867 11.1938 10.4867 10.8772 10.682 10.682ZM5.5 7.5C5.5 6.39543 6.39543 5.5 7.5 5.5C8.60457 5.5 9.5 6.39543 9.5 7.5C9.5 8.60457 8.60457 9.5 7.5 9.5C6.39543 9.5 5.5 8.60457 5.5 7.5ZM7.5 4.5C5.84315 4.5 4.5 5.84315 4.5 7.5C4.5 9.15685 5.84315 10.5 7.5 10.5C9.15685 10.5 10.5 9.15685 10.5 7.5C10.5 5.84315 9.15685 4.5 7.5 4.5Z"
    fill="currentColor"
  />
</symbol>

<symbol id="trash" viewBox="0 0 15 15" fill="none">
  <path
    fill-rule="evenodd"
    clip-rule="evenodd"
    d="M5.5 1C5.22386 1 5 1.22386 5 1.5C5 1.77614 5.22386 2 5.5 2H9.5C9.77614 2 10 1.77614 10 1.5C10 1.22386 9.77614 1 9.5 1H5.5ZM3 3.5C3 3.22386 3.22386 3 3.5 3H5H10H11.5C11.7761 3 12 3.22386 12 3.5C12 3.77614 11.7761 4 11.5 4H11V12C11 12.5523 10.5523 13 10 13H5C4.44772 13 4 12.5523 4 12V4L3.5 4C3.22386 4 3 3.77614 3 3.5ZM5 4H10V12H5V4Z"
    fill="currentColor"
  />
</symbol>

</svg>
