<svg width="450" height="144" viewBox="0 0 450 144" fill="none" xmlns="http://www.w3.org/2000/svg">
<path fill-rule="evenodd" clip-rule="evenodd" d="M1.05731 91.2538C-0.372741 93.5865 -0.350609 96.5297 1.11436 98.8407L27.6299 140.668C29.3508 143.383 32.6679 144.621 35.7465 143.697L112.264 120.742C116.44 119.489 118.541 114.831 116.716 110.872L67.5265 4.16889C65.1276 -1.03475 57.8961 -1.46189 54.9013 3.42317L1.05731 91.2538ZM66.2195 28.5622C65.1741 26.1431 61.6338 26.5157 61.1149 29.0995L42.1773 123.393C41.778 125.381 43.6395 127.079 45.5827 126.499L98.4502 110.718C99.9933 110.257 100.788 108.553 100.149 107.074L66.2195 28.5622Z" fill="#5A67D8"/>
<path fill-rule="evenodd" clip-rule="evenodd" d="M163.219 71.7251H167.88C172.235 71.7251 175.492 70.8653 177.656 69.144C179.819 67.4228 180.9 64.9175 180.9 61.6283C180.9 58.31 179.993 55.858 178.181 54.2738C176.368 52.6897 173.529 51.8976 169.661 51.8976H163.219V71.7251ZM195.199 61.1264C195.199 68.3147 192.954 73.8107 188.459 77.6178C183.968 81.4265 177.58 83.3284 169.296 83.3284H163.22V107.086H149.058V40.2939H170.392C178.495 40.2939 184.654 42.0378 188.872 45.5238C193.091 49.0115 195.199 54.2124 195.199 61.1264V61.1264Z" fill="#5A67D8"/>
<path fill-rule="evenodd" clip-rule="evenodd" d="M232.74 55.0498C234.629 55.0498 236.197 55.1869 237.446 55.4612L236.396 68.5262C235.268 68.2229 233.899 68.0697 232.284 68.0697C227.836 68.0697 224.373 69.2118 221.889 71.496C219.407 73.7803 218.167 76.9792 218.167 81.0912V107.086H204.232V56.0096H214.786L216.843 64.5981H217.527C219.111 61.7364 221.25 59.4279 223.947 57.676C226.641 55.9258 229.572 55.0498 232.74 55.0498" fill="#5A67D8"/>
<path fill-rule="evenodd" clip-rule="evenodd" d="M244.838 107.086H258.773V56.0099H244.838V107.086ZM244.246 42.806C244.246 38.2681 246.774 36 251.83 36C256.884 36 259.413 38.2681 259.413 42.806C259.413 44.9692 258.781 46.6517 257.518 47.8552C256.253 49.0586 254.357 49.6587 251.83 49.6587C246.774 49.6587 244.246 47.3744 244.246 42.806V42.806Z" fill="#5A67D8"/>
<path fill-rule="evenodd" clip-rule="evenodd" d="M307.83 91.9181C307.83 97.1577 306.01 101.147 302.369 103.888C298.73 106.629 293.285 108 286.037 108C282.321 108 279.156 107.748 276.536 107.245C273.916 106.743 271.464 106.004 269.18 105.03V93.5167C271.769 94.7363 274.684 95.7558 277.93 96.5785C281.172 97.3996 284.027 97.811 286.494 97.811C291.55 97.811 294.079 96.3495 294.079 93.4264C294.079 92.3295 293.744 91.439 293.074 90.7534C292.403 90.0678 291.246 89.2919 289.601 88.4224C287.957 87.5545 285.763 86.543 283.022 85.3848C279.094 83.741 276.207 82.2181 274.366 80.8163C272.522 79.4161 271.182 77.8093 270.346 75.9961C269.507 74.1846 269.088 71.9535 269.088 69.3031C269.088 64.7653 270.846 61.2566 274.366 58.774C277.883 56.2913 282.869 55.0508 289.327 55.0508C295.479 55.0508 301.464 56.3913 307.281 59.0708L303.079 69.1208C300.52 68.0239 298.128 67.1269 295.905 66.4252C293.682 65.7251 291.413 65.3751 289.099 65.3751C284.987 65.3751 282.93 66.4865 282.93 68.7095C282.93 69.9597 283.595 71.0405 284.918 71.9535C286.244 72.8666 289.144 74.2233 293.621 76.0203C297.612 77.6351 300.537 79.1418 302.393 80.542C304.25 81.9439 305.621 83.5571 306.505 85.3848C307.389 87.2125 307.83 89.3903 307.83 91.9181" fill="#5A67D8"/>
<path fill-rule="evenodd" clip-rule="evenodd" d="M363.03 107.086H349.095V77.2534C349.095 73.569 348.478 70.804 347.247 68.9618C346.011 67.1195 344.07 66.1968 341.42 66.1968C337.858 66.1968 335.269 67.5067 333.654 70.1265C332.039 72.7462 331.233 77.055 331.233 83.056V107.086H317.298V56.0096H327.944L329.817 62.543H330.594C331.964 60.1974 333.945 58.3616 336.532 57.0372C339.121 55.7128 342.091 55.0498 345.442 55.0498C353.086 55.0498 358.263 57.5486 360.975 62.543H362.207C363.578 60.1668 365.597 58.3245 368.262 57.0146C370.926 55.7048 373.933 55.0498 377.284 55.0498C383.07 55.0498 387.45 56.5355 390.418 59.5038C393.388 62.4736 394.872 67.2324 394.872 73.7803V107.086H380.893V77.2534C380.893 73.569 380.275 70.804 379.044 68.9618C377.808 67.1195 375.868 66.1968 373.217 66.1968C369.807 66.1968 367.257 67.4163 365.564 69.8522C363.875 72.2897 363.03 76.1565 363.03 81.4557V107.086Z" fill="#5A67D8"/>
<path fill-rule="evenodd" clip-rule="evenodd" d="M435.422 83.4209L430.031 83.6031C425.98 83.7257 422.965 84.4565 420.986 85.7971C419.005 87.1376 418.016 89.1766 418.016 91.919C418.016 95.8471 420.269 97.8119 424.776 97.8119C428.004 97.8119 430.587 96.8827 432.52 95.0244C434.454 93.1676 435.422 90.7011 435.422 87.6232V83.4209ZM439.533 107.086L436.838 100.141H436.472C434.126 103.097 431.713 105.144 429.23 106.286C426.749 107.428 423.513 107.999 419.524 107.999C414.618 107.999 410.759 106.599 407.941 103.797C405.125 100.995 403.716 97.0052 403.716 91.8269C403.716 86.4067 405.612 82.4093 409.403 79.8347C413.197 77.2617 418.914 75.8372 426.559 75.563L435.421 75.2888V73.0497C435.421 67.873 432.771 65.2839 427.472 65.2839C423.39 65.2839 418.593 66.5164 413.081 68.9845L408.467 59.5733C414.345 56.497 420.864 54.958 428.02 54.958C434.873 54.958 440.127 56.4518 443.783 59.4362C447.436 62.4205 449.264 66.9584 449.264 73.0497V107.086H439.533Z" fill="#5A67D8"/>
</svg>
